HIERARCHY
ROOT Hips
{
	OFFSET 0.000000 0.000000 0.000000
	CHANNELS 6 Xposition Yposition Zposition Yrotation Xrotation Zrotation
	JOINT Chest
	{
		OFFSET 0.000000 -0.009281 11.569106
		CHANNELS 3 Yrotation Xrotation Zrotation
		JOINT Chest2
		{
			OFFSET -0.000000 0.016865 9.269641
			CHANNELS 3 Yrotation Xrotation Zrotation
			JOINT Chest3
			{
				OFFSET -0.000000 0.000001 8.374491
				CHANNELS 3 Yrotation Xrotation Zrotation
				JOINT Chest4
				{
					OFFSET -0.000000 0.000001 8.374493
					CHANNELS 3 Yrotation Xrotation Zrotation
					JOINT Neck
					{
						OFFSET -0.000000 0.000002 12.152554
						CHANNELS 3 Yrotation Xrotation Zrotation
						JOINT Head
						{
							OFFSET -0.000000 0.040101 7.802319
							CHANNELS 3 Yrotation Xrotation Zrotation
							End Site
							{
								OFFSET -0.000000 0.020947 14.853096
							}
						}
					}
					JOINT RightCollar
					{
						OFFSET 2.894404 0.000001 6.791374
						CHANNELS 3 Yrotation Xrotation Zrotation
						JOINT RightShoulder
						{
							OFFSET 13.574684 0.000001 0.000000
							CHANNELS 3 Yrotation Xrotation Zrotation
							JOINT RightElbow
							{
								OFFSET 23.923903 0.000002 0.000000
								CHANNELS 3 Yrotation Xrotation Zrotation
								JOINT RightWrist
								{
									OFFSET 19.846718 0.012767 0.000000
									CHANNELS 3 Yrotation Xrotation Zrotation
									End Site
									{
										OFFSET 14.973145 0.000001 0.000000
									}
								}
							}
						}
					}
					JOINT LeftCollar
					{
						OFFSET -2.894404 0.000001 6.791374
						CHANNELS 3 Yrotation Xrotation Zrotation
						JOINT LeftShoulder
						{
							OFFSET -13.574684 -0.000001 0.000000
							CHANNELS 3 Yrotation Xrotation Zrotation
							JOINT LeftElbow
							{
								OFFSET -23.923903 -0.000002 0.000000
								CHANNELS 3 Yrotation Xrotation Zrotation
								JOINT LeftWrist
								{
									OFFSET -19.846718 0.012763 0.000000
									CHANNELS 3 Yrotation Xrotation Zrotation
									End Site
									{
										OFFSET -14.973145 -0.000001 0.000000
									}
								}
							}
						}
					}
				}
			}
		}
	}
	JOINT RightHip
	{
		OFFSET 9.469263 0.004643 0.045487
		CHANNELS 3 Yrotation Xrotation Zrotation
		JOINT RightKnee
		{
			OFFSET 0.000000 0.002661 -40.478676
			CHANNELS 3 Yrotation Xrotation Zrotation
			JOINT RightAnkle
			{
				OFFSET 0.000000 0.049106 -35.224068
				CHANNELS 3 Yrotation Xrotation Zrotation
				JOINT RightToe
				{
					OFFSET -0.000001 12.539529 -6.151390
					CHANNELS 3 Yrotation Xrotation Zrotation
					End Site
					{
						OFFSET -0.000001 5.044994 -1.291870
					}
				}
			}
		}
	}
	JOINT LeftHip
	{
		OFFSET -9.469263 0.004641 0.045487
		CHANNELS 3 Yrotation Xrotation Zrotation
		JOINT LeftKnee
		{
			OFFSET 0.000000 0.002661 -40.478676
			CHANNELS 3 Yrotation Xrotation Zrotation
			JOINT LeftAnkle
			{
				OFFSET 0.000000 0.049106 -35.224068
				CHANNELS 3 Yrotation Xrotation Zrotation
				JOINT LeftToe
				{
					OFFSET -0.000001 12.539529 -6.151390
					CHANNELS 3 Yrotation Xrotation Zrotation
					End Site
					{
						OFFSET -0.000001 5.044994 -1.291870
					}
				}
			}
		}
	}
}
MOTION
Frames: 5
Frame Time: 0.016667
39.327221 -13.540411 82.285660 -6.870075 -4.578278 -103.648476 0.371457 -6.691455 0.552528 0.173164 -2.971416 0.251123 0.173164 -2.971416 0.251124 0.131066 -2.228491 0.189143 1.383067 -19.815996 -1.832798 1.957138 -0.606981 -2.916891 8.911977 10.284303 -0.355532 41.440394 -14.651693 -15.538481 -49.822863 -60.038975 115.843396 -68.131308 39.332583 32.379666 -8.224929 6.776501 -4.430958 -41.846083 -15.150311 20.851283 16.109594 -60.821223 -78.290709 37.855569 27.360761 -66.324736 6.875503 -8.400718 -13.904611 3.952661 -2.299671 -3.114569 -6.231232 3.951455 -3.309445 -0.177074 0.041501 -0.043955 11.700502 4.438620 32.028970 -4.433651 0.049754 22.085135 6.872624 -18.084411 5.262747 0.018474 0.285770 0.032777 
39.264862 -13.559746 82.286453 -6.885916 -4.591925 -103.625793 0.358998 -6.717792 0.561555 0.166387 -2.982119 0.251548 0.166386 -2.982120 0.251547 0.125990 -2.236521 0.189431 1.407619 -19.986103 -1.809014 2.011507 -0.922574 -2.866608 8.910666 10.275923 -0.365478 41.448347 -14.638811 -15.494646 -49.833128 -60.026626 115.834872 -68.126540 39.331248 32.377378 -8.221720 6.794382 -4.444415 -41.836193 -15.150398 20.853886 16.124309 -60.800309 -78.318849 37.863420 27.379261 -66.323227 6.903386 -8.365214 -13.895721 3.978324 -2.323654 -3.128267 -6.232423 3.923694 -3.368172 -0.185239 0.042861 -0.025073 11.737193 4.476972 32.046862 -4.432552 0.049396 22.069603 6.892374 -18.234095 5.283936 0.019922 0.302522 0.029557 
39.198944 -13.577671 82.287315 -6.898538 -4.596162 -103.595931 0.337811 -6.739997 0.566896 0.158123 -2.992400 0.251865 0.158123 -2.992400 0.251865 0.119799 -2.244236 0.189629 1.435425 -20.174039 -1.783005 2.072544 -1.271270 -2.811573 8.918884 10.297524 -0.374161 41.448655 -14.644194 -15.467669 -49.836929 -60.016818 115.822632 -68.109021 39.316553 32.378310 -8.210174 6.816279 -4.447477 -41.832511 -15.156072 20.845577 16.127258 -60.780986 -78.332714 37.867962 27.397858 -66.333137 6.918358 -8.317873 -13.870807 4.009641 -2.353877 -3.173693 -6.226058 3.902184 -3.419020 -0.196077 0.040713 -0.005104 11.771475 4.519031 32.038840 -4.432027 0.045539 22.068317 6.908284 -18.399749 5.271006 0.016011 0.328723 0.013478 
39.129951 -13.592271 82.287155 -6.912015 -4.598827 -103.569164 0.314513 -6.759276 0.575352 0.149394 -3.001265 0.251630 0.149394 -3.001265 0.251632 0.113257 -2.250888 0.189415 1.460650 -20.378556 -1.751637 2.130493 -1.650814 -2.747909 8.927575 10.344822 -0.371498 41.452845 -14.657499 -15.472373 -49.863065 -60.016176 115.832427 -68.092464 39.304337 32.383535 -8.199892 6.820691 -4.453371 -41.821405 -15.142418 20.833667 16.142913 -60.762456 -78.358410 37.876035 27.406709 -66.339537 6.916425 -8.255892 -13.843714 4.057647 -2.413012 -3.252464 -6.210271 3.899924 -3.427420 -0.214522 0.035925 0.001598 11.795558 4.567747 32.009371 -4.421721 0.041007 22.074461 6.910770 -18.562876 5.252245 0.020647 0.346423 0.012437 
39.057804 -13.602844 82.285866 -6.930294 -4.603437 -103.549404 0.290569 -6.776841 0.594948 0.141256 -3.008694 0.252436 0.141256 -3.008693 0.252437 0.107161 -2.256462 0.189982 1.482016 -20.607092 -1.719018 2.181847 -2.075063 -2.683555 8.925089 10.342348 -0.385994 41.459757 -14.645437 -15.445324 -49.893398 -60.019611 115.848997 -68.083626 39.291705 32.385810 -8.189128 6.817979 -4.455818 -41.809435 -15.128901 20.828718 16.166458 -60.741091 -78.391188 37.874799 27.410014 -66.354318 6.912197 -8.199483 -13.819633 4.100307 -2.476172 -3.313347 -6.181668 3.906032 -3.443839 -0.233783 0.026535 0.010361 11.823269 4.620173 31.966173 -4.408911 0.027613 22.085640 6.907379 -18.715113 5.245949 0.026632 0.347495 0.018054 
